<svg width="509" height="511" viewBox="0 0 509 511" fill="none" xmlns="http://www.w3.org/2000/svg">
<g clip-path="url(#clip0_1102_24)">
<path d="M268.99 217.66L239.52 217.63L234.76 215.63L234.17 215.03L147.65 128.31L145.72 123.53L145.7 94.22L147.72 89.25L164.02 72.88L170.09 78.92L155 94.07L154.26 95.89L154.27 121.86L154.94 123.5L239.63 208.39L241.25 209.07L267.38 209.1L268.82 208.53L353.63 123.53L354.22 122.07L354.2 95.9L353.53 94.28L269.05 9.48L266.81 8.57L241.38 8.56L239.33 9.42L196.5 53.5L194.5 50L190.44 47.46L234.45 2.19L239.65 0L268.5 0.01L273.89 2.21L360.79 89.44L362.76 94.19L362.78 123.74L360.92 128.34L273.61 215.85L268.99 217.66Z" fill="#E94662" fill-opacity="0.5"/>
<path d="M184.03 72.53C181.321 72.534 178.672 71.7342 176.418 70.2319C174.164 68.7296 172.406 66.5923 171.367 64.0905C170.328 61.5888 170.055 58.835 170.581 56.1778C171.108 53.5206 172.411 51.0795 174.326 49.1633C176.241 47.2471 178.681 45.9421 181.338 45.4133C183.995 44.8846 186.749 45.156 189.251 46.1931C191.754 47.2302 193.892 48.9864 195.396 51.2395C196.9 53.4925 197.702 56.1411 197.7 58.85C197.697 62.4756 196.257 65.9521 193.694 68.5168C191.131 71.0814 187.656 72.5247 184.03 72.53ZM184.03 53.72C183.015 53.7161 182.021 54.0135 181.174 54.5748C180.328 55.1361 179.668 55.9359 179.276 56.873C178.885 57.81 178.78 58.8421 178.976 59.8385C179.172 60.8349 179.659 61.7509 180.375 62.4703C181.092 63.1898 182.006 63.6804 183.002 63.8799C183.997 64.0795 185.03 63.9791 185.969 63.5914C186.907 63.2037 187.709 62.5462 188.274 61.7022C188.839 60.8581 189.14 59.8655 189.14 58.85C189.147 58.1738 189.019 57.503 188.766 56.8761C188.512 56.2492 188.137 55.6787 187.662 55.1973C187.187 54.7159 186.622 54.3331 185.999 54.071C185.375 53.8089 184.706 53.6726 184.03 53.67V53.72Z" fill="#E94662" fill-opacity="0.5"/>
<path d="M93.79 364L89.17 362.18L1.87 274.68L0 270.08L0.02 240.53L2 235.77L88.89 148.55L94.29 146.35L123.13 146.34L128.33 148.52L172 193.33L169 195.33L166.5 198.83L123.46 155.76L121.41 154.9L95.97 154.91L93.73 155.82L9.25 240.62L8.58 242.24L8.56 268.41L9.15 269.86L93.97 354.87L95.41 355.44L121.53 355.41L123.15 354.73L207.85 269.84L208.51 268.2L208.52 242.22L207.78 240.4L192.7 225.25L198.76 219.21L215.07 235.59L217.09 240.55L217.07 269.86L215.13 274.65L214.52 275.27L128.02 361.96L123.26 363.96L93.79 364Z" fill="#E94662" fill-opacity="0.5"/>
<path d="M178.7 218.53C175.992 218.534 173.343 217.734 171.089 216.233C168.835 214.731 167.077 212.594 166.038 210.093C164.999 207.592 164.725 204.838 165.251 202.181C165.777 199.525 167.079 197.083 168.993 195.167C170.906 193.25 173.346 191.944 176.002 191.415C178.658 190.885 181.412 191.155 183.914 192.19C186.417 193.226 188.556 194.98 190.061 197.232C191.567 199.484 192.37 202.132 192.37 204.84C192.37 208.467 190.93 211.946 188.367 214.513C185.804 217.08 182.327 218.525 178.7 218.53ZM178.7 199.72C177.684 199.716 176.69 200.014 175.843 200.576C174.997 201.137 174.336 201.938 173.945 202.875C173.554 203.813 173.45 204.845 173.647 205.842C173.843 206.839 174.331 207.755 175.049 208.474C175.767 209.193 176.682 209.683 177.678 209.881C178.674 210.08 179.707 209.978 180.645 209.588C181.584 209.199 182.386 208.54 182.949 207.695C183.512 206.849 183.812 205.856 183.81 204.84C183.814 204.165 183.685 203.497 183.43 202.872C183.175 202.248 182.8 201.679 182.325 201.2C181.851 200.721 181.286 200.34 180.664 200.079C180.042 199.818 179.375 199.683 178.7 199.68V199.72Z" fill="#E94662" fill-opacity="0.5"/>
<path d="M385.15 363.62L380.55 361.75L293.24 274.24L291.44 269.62L291.47 240.09L293.46 235.33L380.58 148.02L385.36 146.08L414.61 146.06L419.58 148.09L435.91 164.43L429.86 170.48L414.75 155.36L412.94 154.62L387.03 154.64L385.41 155.3L300.71 240.19L300.03 241.81L300 268.01L300.57 269.46L385.38 354.47L386.82 355.06L412.92 355.04L414.53 354.37L499.14 269.7L500.05 267.45L500.06 241.94L499.2 239.88L456 196.5L459.5 194L462 191L506.44 235.02L508.62 240.22L508.61 269.13L506.42 274.53L419.39 361.62L414.64 363.6L385.15 363.62Z" fill="#E94662" fill-opacity="0.5"/>
<path d="M449.94 198.2C447.231 198.204 444.581 197.404 442.327 195.901C440.072 194.398 438.315 192.261 437.276 189.758C436.237 187.256 435.965 184.502 436.492 181.844C437.02 179.187 438.324 176.745 440.24 174.83C442.156 172.914 444.597 171.61 447.254 171.082C449.912 170.554 452.666 170.827 455.168 171.866C457.671 172.905 459.808 174.662 461.311 176.917C462.814 179.171 463.614 181.821 463.61 184.53C463.602 188.153 462.159 191.625 459.597 194.187C457.035 196.749 453.563 198.192 449.94 198.2ZM449.94 179.39C448.924 179.382 447.929 179.676 447.08 180.234C446.232 180.793 445.568 181.591 445.173 182.527C444.778 183.463 444.67 184.495 444.863 185.492C445.056 186.49 445.54 187.408 446.255 188.13C446.97 188.851 447.883 189.345 448.878 189.547C449.874 189.749 450.907 189.652 451.847 189.266C452.787 188.881 453.591 188.225 454.158 187.381C454.724 186.538 455.028 185.546 455.03 184.53C455.033 183.175 454.499 181.873 453.545 180.91C452.591 179.947 451.295 179.401 449.94 179.39Z" fill="#E94662" fill-opacity="0.5"/>
<path d="M269.67 510.24L240.17 510.21L235.42 508.23L148.4 421.14L146.2 415.74L146.19 386.84L148.37 381.64L192.5 337L194 339L195.5 341L198 343L155.62 386.5L154.75 388.56L154.76 414.06L155.68 416.32L240.28 500.99L241.89 501.66L267.99 501.68L269.43 501.09L354.25 416.08L354.81 414.63L354.79 388.43L354.1 386.8L269.41 301.91L267.78 301.25L241.87 301.24L240.07 301.97L224.95 317.09L218.9 311.04L235.24 294.7L240.2 292.68L269.45 292.69L274.24 294.63L361.35 381.94L363.34 386.71L363.37 416.24L361.57 420.86L274.27 508.36L269.67 510.24Z" fill="#E94662" fill-opacity="0.5"/>
<path d="M204.86 344.82C202.152 344.824 199.503 344.024 197.249 342.523C194.995 341.021 193.237 338.884 192.198 336.383C191.159 333.882 190.885 331.128 191.411 328.471C191.937 325.815 193.239 323.373 195.153 321.457C197.066 319.54 199.506 318.234 202.162 317.705C204.818 317.175 207.572 317.445 210.074 318.48C212.577 319.516 214.716 321.27 216.221 323.522C217.727 325.774 218.53 328.422 218.53 331.13C218.53 334.757 217.09 338.236 214.527 340.803C211.964 343.37 208.487 344.815 204.86 344.82ZM204.86 326C203.845 325.996 202.851 326.294 202.004 326.855C201.158 327.416 200.498 328.216 200.106 329.153C199.715 330.09 199.61 331.122 199.806 332.118C200.002 333.115 200.489 334.031 201.205 334.75C201.922 335.47 202.836 335.96 203.832 336.16C204.827 336.359 205.86 336.259 206.798 335.871C207.737 335.484 208.539 334.826 209.104 333.982C209.669 333.138 209.97 332.145 209.97 331.13C209.971 330.458 209.84 329.792 209.584 329.17C209.328 328.548 208.952 327.983 208.477 327.507C208.003 327.03 207.439 326.652 206.819 326.394C206.198 326.135 205.532 326.001 204.86 326Z" fill="#E94662" fill-opacity="0.5"/>
<path d="M274.18 80.22C271.472 80.224 268.823 79.4244 266.569 77.9225C264.315 76.4207 262.557 74.284 261.518 71.7828C260.479 69.2816 260.205 66.5284 260.731 63.8715C261.257 61.2146 262.559 58.7734 264.473 56.8568C266.386 54.9402 268.826 53.6344 271.482 53.1045C274.138 52.5747 276.892 52.8446 279.394 53.8802C281.897 54.9158 284.036 56.6704 285.541 58.9222C287.047 61.1739 287.85 63.8215 287.85 66.53C287.85 70.1573 286.41 73.6364 283.847 76.2032C281.284 78.77 277.807 80.2147 274.18 80.22ZM274.18 61.4C273.165 61.396 272.171 61.6935 271.324 62.2548C270.478 62.8161 269.818 63.6159 269.426 64.5529C269.035 65.49 268.93 66.5221 269.126 67.5185C269.322 68.5149 269.809 69.4309 270.525 70.1503C271.242 70.8698 272.156 71.3603 273.152 71.5599C274.147 71.7595 275.18 71.6591 276.118 71.2714C277.057 70.8837 277.859 70.2262 278.424 69.3821C278.989 68.5381 279.29 67.5455 279.29 66.53C279.291 65.8576 279.16 65.1916 278.904 64.5699C278.648 63.9482 278.272 63.383 277.797 62.9067C277.323 62.4303 276.759 62.0521 276.139 61.7936C275.518 61.535 274.852 61.4013 274.18 61.4Z" fill="#E94662" fill-opacity="0.5"/>
<path d="M314.18 120.3C311.471 120.306 308.821 119.508 306.565 118.007C304.31 116.506 302.55 114.369 301.51 111.867C300.469 109.366 300.194 106.612 300.72 103.954C301.246 101.296 302.548 98.854 304.463 96.9368C306.377 95.0197 308.817 93.7136 311.474 93.1841C314.131 92.6545 316.886 92.9253 319.389 93.9621C321.892 94.9989 324.031 96.7552 325.536 99.0084C327.04 101.262 327.842 103.911 327.84 106.62C327.837 110.244 326.398 113.719 323.837 116.283C321.277 118.848 317.804 120.292 314.18 120.3ZM314.18 101.49C313.164 101.484 312.169 101.78 311.322 102.34C310.474 102.9 309.812 103.699 309.419 104.636C309.026 105.573 308.92 106.605 309.115 107.602C309.31 108.599 309.796 109.516 310.512 110.237C311.228 110.957 312.142 111.449 313.138 111.649C314.134 111.85 315.167 111.75 316.106 111.362C317.045 110.975 317.848 110.317 318.413 109.473C318.978 108.629 319.28 107.636 319.28 106.62C319.272 105.271 318.732 103.979 317.777 103.026C316.822 102.073 315.529 101.535 314.18 101.53V101.49Z" fill="#E94662" fill-opacity="0.5"/>
<path d="M308.028 94.3715L286.384 72.6819L284 76L280.324 78.7284L301.969 100.418L304.504 97.0044L308.028 94.3715Z" fill="#E94662" fill-opacity="0.5"/>
<path d="M81.97 312.47C79.2615 312.474 76.6127 311.674 74.3588 310.173C72.1049 308.671 70.3471 306.534 69.3078 304.033C68.2686 301.532 67.9946 298.778 68.5206 296.121C69.0466 293.465 70.3489 291.023 72.2626 289.107C74.1764 287.19 76.6157 285.884 79.2718 285.355C81.928 284.825 84.6816 285.095 87.1843 286.13C89.687 287.166 91.8263 288.92 93.3314 291.172C94.8366 293.424 95.64 296.072 95.64 298.78C95.64 302.407 94.2004 305.886 91.6374 308.453C89.0743 311.02 85.5973 312.465 81.97 312.47ZM81.97 293.65C80.9545 293.646 79.9608 293.944 79.1145 294.505C78.2682 295.066 77.6076 295.866 77.2162 296.803C76.8249 297.74 76.7205 298.772 76.9161 299.768C77.1118 300.765 77.5988 301.681 78.3155 302.4C79.0321 303.12 79.9461 303.61 80.9418 303.81C81.9375 304.009 82.97 303.909 83.9085 303.521C84.8471 303.134 85.6494 302.476 86.214 301.632C86.7786 300.788 87.08 299.795 87.08 298.78C87.0813 298.108 86.9502 297.442 86.6941 296.82C86.438 296.198 86.062 295.633 85.5875 295.157C85.113 294.68 84.5493 294.302 83.9286 294.044C83.3079 293.785 82.6424 293.651 81.97 293.65Z" fill="#E94662" fill-opacity="0.5"/>
<path d="M121.93 312.53C119.222 312.534 116.573 311.734 114.319 310.233C112.065 308.731 110.307 306.594 109.268 304.093C108.229 301.592 107.955 298.838 108.481 296.181C109.007 293.525 110.309 291.083 112.223 289.167C114.136 287.25 116.576 285.944 119.232 285.415C121.888 284.885 124.642 285.155 127.144 286.19C129.647 287.226 131.786 288.98 133.291 291.232C134.797 293.484 135.6 296.132 135.6 298.84C135.6 302.467 134.16 305.946 131.597 308.513C129.034 311.08 125.557 312.525 121.93 312.53ZM121.93 293.71C120.915 293.706 119.921 294.004 119.075 294.565C118.228 295.126 117.568 295.926 117.176 296.863C116.785 297.8 116.68 298.832 116.876 299.828C117.072 300.825 117.559 301.741 118.275 302.46C118.992 303.18 119.906 303.67 120.902 303.87C121.897 304.069 122.93 303.969 123.869 303.581C124.807 303.194 125.609 302.536 126.174 301.692C126.739 300.848 127.04 299.855 127.04 298.84C127.045 298.165 126.917 297.496 126.663 296.871C126.408 296.246 126.033 295.677 125.558 295.197C125.083 294.718 124.518 294.337 123.896 294.076C123.273 293.816 122.605 293.681 121.93 293.68V293.71Z" fill="#E94662" fill-opacity="0.5"/>
<path d="M101.54 325.42L87.5 311L91 309L93.5 305.5L101.54 313.32L110 305L112.35 308.56L116 311L101.54 325.42Z" fill="#E94662" fill-opacity="0.5"/>
<path d="M207.85 440.07C205.141 440.076 202.49 439.278 200.235 437.777C197.98 436.276 196.22 434.139 195.18 431.637C194.139 429.136 193.864 426.382 194.39 423.724C194.916 421.066 196.218 418.624 198.133 416.707C200.047 414.79 202.487 413.484 205.144 412.954C207.801 412.425 210.556 412.695 213.059 413.732C215.562 414.769 217.701 416.525 219.206 418.778C220.71 421.032 221.512 423.681 221.51 426.39C221.507 430.014 220.068 433.489 217.507 436.053C214.947 438.618 211.474 440.062 207.85 440.07ZM207.85 421.26C206.834 421.254 205.839 421.55 204.992 422.11C204.144 422.67 203.482 423.469 203.089 424.406C202.696 425.343 202.59 426.375 202.785 427.372C202.979 428.369 203.466 429.286 204.182 430.007C204.898 430.727 205.812 431.219 206.808 431.419C207.804 431.619 208.837 431.52 209.776 431.132C210.715 430.745 211.518 430.087 212.083 429.243C212.648 428.399 212.95 427.406 212.95 426.39C212.953 425.034 212.417 423.732 211.461 422.77C210.505 421.808 209.206 421.265 207.85 421.26Z" fill="#E94662" fill-opacity="0.5"/>
<path d="M247.84 480.16C245.132 480.164 242.483 479.364 240.229 477.863C237.975 476.361 236.217 474.224 235.178 471.723C234.139 469.222 233.865 466.468 234.391 463.811C234.917 461.155 236.219 458.713 238.133 456.797C240.046 454.88 242.486 453.574 245.142 453.045C247.798 452.515 250.552 452.785 253.054 453.82C255.557 454.856 257.696 456.61 259.201 458.862C260.707 461.114 261.51 463.762 261.51 466.47C261.507 470.097 260.067 473.574 257.504 476.14C254.942 478.707 251.467 480.152 247.84 480.16ZM247.84 461.34C246.825 461.336 245.831 461.634 244.984 462.195C244.138 462.756 243.478 463.556 243.086 464.493C242.695 465.43 242.59 466.462 242.786 467.458C242.982 468.455 243.469 469.371 244.185 470.09C244.902 470.81 245.816 471.3 246.812 471.5C247.807 471.699 248.84 471.599 249.779 471.211C250.717 470.824 251.519 470.166 252.084 469.322C252.649 468.478 252.95 467.485 252.95 466.47C252.95 465.113 252.412 463.811 251.455 462.85C250.497 461.888 249.197 461.345 247.84 461.34Z" fill="#E94662" fill-opacity="0.5"/>
<path d="M241.5 454.5L219.885 432.455L217.5 436L213.824 438.5L235.5 460.5L238 457L241.5 454.5Z" fill="#E94662" fill-opacity="0.5"/>
<path d="M359.25 247.88C356.547 247.878 353.905 247.075 351.658 245.571C349.411 244.068 347.661 241.932 346.628 239.434C345.595 236.936 345.325 234.188 345.854 231.537C346.382 228.886 347.685 226.451 349.597 224.54C351.51 222.63 353.945 221.329 356.597 220.802C359.248 220.275 361.996 220.547 364.494 221.582C366.991 222.616 369.125 224.369 370.627 226.616C372.128 228.864 372.93 231.507 372.93 234.21C372.925 237.836 371.481 241.311 368.917 243.874C366.352 246.437 362.876 247.877 359.25 247.88ZM359.25 229.11C358.239 229.112 357.252 229.414 356.413 229.977C355.573 230.54 354.92 231.339 354.535 232.274C354.15 233.208 354.051 234.236 354.25 235.227C354.449 236.218 354.938 237.127 355.654 237.84C356.37 238.554 357.281 239.039 358.273 239.234C359.265 239.429 360.292 239.326 361.225 238.937C362.158 238.549 362.955 237.892 363.514 237.051C364.074 236.209 364.372 235.221 364.37 234.21C364.365 232.856 363.823 231.558 362.863 230.603C361.904 229.647 360.604 229.11 359.25 229.11Z" fill="#E94662" fill-opacity="0.5"/>
<path d="M359.22 287.84C356.516 287.838 353.874 287.034 351.627 285.531C349.38 284.027 347.63 281.891 346.597 279.392C345.564 276.893 345.295 274.145 345.825 271.493C346.354 268.842 347.658 266.407 349.571 264.497C351.484 262.586 353.921 261.286 356.573 260.761C359.225 260.235 361.973 260.508 364.471 261.544C366.968 262.581 369.101 264.335 370.602 266.584C372.102 268.833 372.902 271.476 372.9 274.18C372.892 277.804 371.448 281.277 368.883 283.837C366.319 286.398 362.844 287.837 359.22 287.84ZM359.22 269.07C358.21 269.072 357.223 269.373 356.384 269.936C355.545 270.499 354.891 271.298 354.506 272.231C354.121 273.165 354.021 274.192 354.219 275.183C354.418 276.174 354.905 277.083 355.62 277.797C356.335 278.511 357.246 278.996 358.237 279.193C359.228 279.389 360.255 279.287 361.188 278.9C362.121 278.513 362.919 277.858 363.48 277.018C364.041 276.178 364.34 275.19 364.34 274.18C364.337 272.824 363.797 271.524 362.837 270.566C361.877 269.608 360.576 269.07 359.22 269.07Z" fill="#E94662" fill-opacity="0.5"/>
<path d="M347 268.5L332.61 253.78L347 239.5L349 243L352.5 246L344.72 253.78L352.5 262.5L349.47 264.59L347 268.5Z" fill="#E94662" fill-opacity="0.5"/>
</g>
<defs>
<clipPath id="clip0_1102_24">
<rect width="508.62" height="510.24" fill="white"/>
</clipPath>
</defs>
</svg>
